# xmcd CD database file
#
# Track frame offsets:
#	182
#	25970
#	41857
#	59510
#
# Disc length: 1038 seconds
#
# Revision: 0
# Processed by: cddbd v1.5.2PL0 Copyright (c) Steve Scherf et al.
# Submitted via: CDex 1.51
#
DISCID=34040c04
DTITLE=Viktor Lazlo - Love Insane
DYEAR=1991
DGENRE=Jazz
TTITLE0=Love Insane (english version)
TTITLE1=Berceuse
TTITLE2=Love Insane (single version)
TTITLE3=Teach me to Dance (french version)
EXTD=YEAR: 1991
EXTT0=
EXTT1=
EXTT2=
EXTT3=
PLAYORDER=
